# xmcd
#
# Track frame offsets:
#	150
#	12596
#	28681
#	42518
#	57136
#	72584
#	89410
#	103244
#	117768
#	129053
#	144841
#	158706
#	172469
#	186489
#	198903
#	212809
#	229672
#
# Disc length: 3381 seconds
#
# Revision: 1
# Processed by: cddbd v1.5.2PL0 Copyright (c) Steve Scherf et al.
# Submitted via: EZCDAudioConverter 6.0.0.1
#
DISCID=f70d3311
DTITLE=Nicole - 12 Punkte (Premium Edition)
DYEAR=2017
DGENRE=Saksa Pop
TTITLE0=Waterloo (German)
TTITLE1=Halt Mich Fest
TTITLE2=Geh Diesen Weg Mit Mir
TTITLE3=Hallelujah
TTITLE4=Merci Cherie
TTITLE5=Extreme
TTITLE6=Küsse Von Dir
TTITLE7=Was Ist Schon Ein Jahr
TTITLE8=Ding-A-Dong
TTITLE9=Dann Kamst Du
TTITLE10=Tausend Tränen
TTITLE11=Euphoria
TTITLE12=Ein Bisschen Frieden
TTITLE13=Waterloo (English)
TTITLE14=Fly On The Wings Of Love
TTITLE15=Insieme
TTITLE16=Track-By-Track
EXTD=
EXTT0=
EXTT1=
EXTT2=
EXTT3=
EXTT4=
EXTT5=
EXTT6=
EXTT7=
EXTT8=
EXTT9=
EXTT10=
EXTT11=
EXTT12=
EXTT13=
EXTT14=
EXTT15=
EXTT16=
PLAYORDER=
